<svg width="53" height="60" viewBox="0 0 53 60" fill="none" xmlns="http://www.w3.org/2000/svg">
<g clip-path="url(#clip0_34145_26)">
<path d="M49.6462 21.4638H48.2088V14.5111C48.2076 14.467 48.2034 14.4229 48.1961 14.3793C48.1981 14.1 48.0986 13.8295 47.9162 13.6184L36.3792 0.403853L36.3707 0.395352C36.3016 0.320519 36.2232 0.254808 36.1375 0.199801L36.0612 0.153039C35.9879 0.112181 35.9104 0.0793986 35.8301 0.0552633L35.7665 0.0340083C35.6784 0.0119898 35.5881 0.000573493 35.4973 0H7.13804C5.84272 0 4.7912 1.0564 4.7912 2.35298V21.4617H3.35384C1.50096 21.4617 0 22.9666 0 24.8243V42.3133C0 44.1689 1.50308 45.6759 3.35384 45.6759H4.7912V57.647C4.7912 58.9436 5.84272 60 7.13804 60H45.862C47.1552 60 48.2088 58.9436 48.2088 57.647V45.6759H49.6462C51.4969 45.6759 53 44.171 53 42.3133V24.8243C53 22.9687 51.499 21.4638 49.6462 21.4638ZM7.13804 2.35298H34.3228V14.3921C34.3228 15.0425 34.8486 15.5675 35.4973 15.5675H45.8641V21.4617H7.13804V2.35298V2.35298ZM24.6959 34.5933C21.8466 33.573 19.9662 31.9916 19.9662 29.4941C19.9662 26.563 22.4338 24.346 26.4512 24.346C28.4101 24.346 29.8072 24.7286 30.8248 25.2111L29.9598 28.3208C28.8513 27.7795 27.6334 27.501 26.4004 27.5067C24.7213 27.5067 23.9072 28.2953 23.9072 29.1625C23.9072 30.2593 24.8464 30.7418 27.0851 31.5835C30.1125 32.7058 31.5096 34.2851 31.5096 36.7082C31.5096 39.5905 29.3238 42.037 24.6196 42.037C22.6607 42.037 20.7294 41.5013 19.7626 40.9657L20.5513 37.7795C21.8825 38.461 23.3518 38.8275 24.8464 38.8508C26.6272 38.8508 27.5685 38.109 27.5685 36.9888C27.5685 35.9175 26.7565 35.3075 24.6959 34.5933V34.5933ZM4.50076 33.42C4.50076 27.5811 8.6708 24.3439 13.8563 24.3439C15.8661 24.3439 17.3904 24.7499 18.0772 25.0836L17.2632 28.1678C16.2334 27.7342 15.1258 27.5172 14.009 27.5301C10.9583 27.5301 8.56904 29.39 8.56904 33.2138C8.56904 36.6296 10.6021 38.7976 14.0344 38.7976C15.2301 38.7976 16.5021 38.5702 17.2886 38.2365L17.8504 41.2952C17.1635 41.6246 15.5354 42.0349 13.4768 42.0349C7.55144 42.037 4.50076 38.3151 4.50076 33.42V33.42ZM45.862 57.0136H7.13804V45.678H45.862V57.0136V57.0136ZM42.7286 41.7819H38.2024L32.7116 24.599H36.958L39.0419 31.8662C39.6249 33.9301 40.1592 35.8686 40.5662 38.0091H40.6425C41.076 35.9665 41.593 33.9427 42.1922 31.9428L44.3801 24.6011H48.4971L42.7286 41.7819V41.7819Z" fill="#ED4C5C"/>
</g>
<defs>
<clipPath id="clip0_34145_26">
<rect width="53" height="60" fill="white"/>
</clipPath>
</defs>
</svg>
