<svg width="80" height="60" viewBox="0 0 80 60" fill="none" xmlns="http://www.w3.org/2000/svg">
<g clip-path="url(#clip0_34145_11)">
<path d="M48.75 48.1797H42.961V29.25C42.961 28.9063 42.6797 28.625 42.336 28.625H37.6485C37.3047 28.625 37.0235 28.9063 37.0235 29.25V48.1797H31.25C30.7266 48.1797 30.4375 48.7813 30.7579 49.1875L39.5079 60.2578C39.5663 60.3325 39.641 60.3929 39.7263 60.4345C39.8116 60.476 39.9052 60.4976 40 60.4976C40.0949 60.4976 40.1885 60.476 40.2738 60.4345C40.3591 60.3929 40.4338 60.3325 40.4922 60.2578L49.2422 49.1875C49.5625 48.7813 49.2735 48.1797 48.75 48.1797V48.1797Z" fill="#ED4C5C"/>
<path d="M63.3906 21.6484C59.8125 12.2109 50.6953 5.5 40.0156 5.5C29.3359 5.5 20.2187 12.2031 16.6406 21.6406C9.94531 23.3984 5 29.5 5 36.75C5 45.3828 11.9922 52.375 20.6172 52.375H23.75C24.0938 52.375 24.375 52.0938 24.375 51.75V47.0625C24.375 46.7187 24.0938 46.4375 23.75 46.4375H20.6172C17.9844 46.4375 15.5078 45.3906 13.6641 43.4922C11.8281 41.6016 10.8516 39.0547 10.9375 36.4141C11.0078 34.3516 11.7109 32.4141 12.9844 30.7813C14.2891 29.1172 16.1172 27.9062 18.1484 27.3672L21.1094 26.5938L22.1953 23.7344C22.8672 21.9531 23.8047 20.2891 24.9844 18.7812C26.149 17.2868 27.5286 15.973 29.0781 14.8828C32.2891 12.625 36.0703 11.4297 40.0156 11.4297C43.9609 11.4297 47.7422 12.625 50.9531 14.8828C52.5078 15.9766 53.8828 17.2891 55.0469 18.7812C56.2266 20.2891 57.1641 21.9609 57.8359 23.7344L58.9141 26.5859L61.8672 27.3672C66.1016 28.5078 69.0625 32.3594 69.0625 36.75C69.0625 39.3359 68.0547 41.7734 66.2266 43.6016C65.33 44.5033 64.2635 45.2183 63.0888 45.7051C61.914 46.1919 60.6544 46.4408 59.3828 46.4375H56.25C55.9062 46.4375 55.625 46.7187 55.625 47.0625V51.75C55.625 52.0938 55.9062 52.375 56.25 52.375H59.3828C68.0078 52.375 75 45.3828 75 36.75C75 29.5078 70.0703 23.4141 63.3906 21.6484Z" fill="#ED4C5C"/>
</g>
<defs>
<clipPath id="clip0_34145_11">
<rect width="80" height="60" fill="white"/>
</clipPath>
</defs>
</svg>
