<svg width="55" height="60" viewBox="0 0 55 60" fill="none" xmlns="http://www.w3.org/2000/svg">
<path d="M15.6475 30.7322C15.6475 29.1423 14.5394 28.1925 12.5856 28.1925C11.7881 28.1925 11.2488 28.2699 10.9655 28.3452V33.4519C11.3012 33.5272 11.7126 33.5544 12.2771 33.5544C14.361 33.5544 15.6475 32.5021 15.6475 30.7322Z" fill="#ED4C5C"/>
<path d="M27.7481 28.2427C26.873 28.2427 26.3064 28.3201 25.9706 28.3975V39.7113C26.3064 39.7887 26.8457 39.7887 27.3347 39.7887C30.8856 39.8138 33.2024 37.864 33.2024 33.7343C33.2297 30.1423 31.1185 28.2427 27.7481 28.2427V28.2427Z" fill="#ED4C5C"/>
<path d="M50.9316 21.5963H49.5088V14.7532C49.5076 14.7097 49.5034 14.6664 49.4962 14.6235C49.4985 14.3483 49.4008 14.0815 49.2212 13.8724L37.7984 0.868296L37.79 0.859928C37.645 0.703007 37.4601 0.588078 37.2549 0.527294L37.1919 0.506373C37.1047 0.484701 37.0153 0.473465 36.9254 0.4729H8.85213C7.56988 0.4729 6.52896 1.51265 6.52896 2.78879V21.5963H5.10609C3.2719 21.5963 1.78607 23.0774 1.78607 24.9059V42.1192C1.78607 43.9456 3.27399 45.4288 5.10609 45.4288H6.52896V57.2133C6.52896 58.4895 7.56988 59.5292 8.85213 59.5292H47.1856C48.4657 59.5292 49.5088 58.4895 49.5088 57.2133V45.4288H50.9316C52.7658 45.4288 54.2516 43.9456 54.2516 42.1192V24.9059C54.2516 23.0774 52.7637 21.5963 50.9316 21.5963V21.5963ZM8.85213 2.78879H35.7628V14.6381C35.7628 15.2783 36.2832 15.795 36.9254 15.795H47.1877V21.5963H8.85213V2.78879ZM37.3724 33.6046C37.3724 36.9142 36.1636 39.1987 34.4868 40.6088C32.661 42.1213 29.8824 42.841 26.4848 42.841C24.4512 42.841 23.0115 42.7113 22.0315 42.5858V25.6004C23.4732 25.3703 25.3515 25.2427 27.3347 25.2427C30.6274 25.2427 32.7638 25.8327 34.4364 27.09C36.2392 28.4226 37.3724 30.5523 37.3724 33.6046V33.6046ZM7.0767 42.6632V25.6004C8.28551 25.3954 9.98539 25.2427 12.3778 25.2427C14.7975 25.2427 16.5226 25.705 17.6789 26.6276C18.7849 27.5 19.5299 28.9373 19.5299 30.6297C19.5299 32.3243 18.9654 33.7594 17.935 34.7343C16.5961 35.9916 14.615 36.5565 12.2981 36.5565C11.7839 36.5565 11.3201 36.5314 10.9613 36.4791V42.6632H7.0767ZM47.1856 56.5857H8.85213V45.4288H47.1856V56.5857ZM50.5518 28.5774H43.8844V32.5293H50.1132V35.7113H43.8844V42.6632H39.9495V25.3703H50.5518V28.5774Z" fill="#ED4C5C"/>
</svg>
