<svg width="52" height="60" viewBox="0 0 52 60" fill="none" xmlns="http://www.w3.org/2000/svg">
<path fill-rule="evenodd" clip-rule="evenodd" d="M26.8209 0.135351L48.7221 7.59902C49.257 7.78594 49.6953 8.39824 49.6824 8.96543V40.0576C49.6824 40.6312 49.315 41.3789 48.8703 41.727L26.6533 59.0391C26.4342 59.2131 26.1377 59.3033 25.8412 59.3033C25.5447 59.3033 25.2547 59.2131 25.0291 59.0391L2.81211 41.727C2.36738 41.3725 2 40.6248 2 40.0576V8.96543C2 8.39824 2.43828 7.77949 2.97324 7.59902L24.8744 0.135351C25.1387 0.0451171 25.4932 0 25.8477 0C26.2021 0 26.5566 0.0451171 26.8209 0.135351ZM25.8477 53.7861L45.0547 38.8201V11.26L25.8477 4.71152L6.64062 11.26V38.8201L25.8477 53.7861Z" fill="#ED4C5C"/>
<path fill-rule="evenodd" clip-rule="evenodd" d="M18.8158 30.7312L13.8207 35.7264C13.7247 35.8233 13.6709 35.9541 13.6709 36.0905C13.6709 36.2269 13.7247 36.3578 13.8207 36.4547L16.0121 38.6461C16.2119 38.8459 16.5406 38.8459 16.7404 38.6461L21.7355 33.651C25.3256 35.9133 30.1209 35.4814 33.2469 32.3555C36.8756 28.7268 36.8756 22.8486 33.2469 19.2199C29.6182 15.5912 23.74 15.5912 20.1113 19.2199C16.9854 22.3459 16.5535 27.1477 18.8158 30.7312ZM30.3271 22.1396C28.3162 20.1223 25.0484 20.1223 23.0311 22.1396C21.0137 24.157 21.0201 27.4184 23.0311 29.4357C25.042 31.4531 28.3098 31.4531 30.3271 29.4357C32.3445 27.4248 32.3445 24.157 30.3271 22.1396Z" fill="#ED4C5C"/>
</svg>
